<svg height="188" viewBox="0 0 143 188" width="143" xmlns="http://www.w3.org/2000/svg" xmlns:xlink="http://www.w3.org/1999/xlink"><defs><path id="a" d="m684.86 224.38c1.99-3.33 6-4.67 9.64-5.14l30.85-3.9c-.52 4.83-4.52 8.35-8.77 9.71-4.25 1.37-7.6.88-12.06 1.11-.72.04-2.7.3-3.27.78-.56.48-.77 1.51-.24 2.06"/><path id="b" d="m672.04 233.97c2.4-1.38 3.53-3.01 4.93-5.56 1-1.83 2.84-4.16 4.7-4.7a5.4 5.4 0 0 1 2.7.16 90.36 90.36 0 0 1 28.92 12.4c-2.8 3.92-7.6 5.57-11.87 3.34-1.4-.74-11.63-5.56-15.02-4.12"/><path id="c" d="m659.13 331.33s-12.11-9.67-9.57-16.2c0 0 7.53-9.33 7.66-17.57.14-8.23-.85-26.95-1.85-35.13s2.57-12.24 6.6-19.43 12.96-12.16 20.75-9.42c6.9 2.43 10.96 9.85 17.67 12.8-6.25 4.11-15.55 2.63-20.2-3.23l-4.7 1.2c-1.55 4.07-6 6.84-10.35 6.45"/><path id="d" d="m767.77 176.24c-51.54 14.7-49.33 85.97-51.42 103.93-1.57 13.4-4.13 27.84-14.01 37.06 10.58 3.77 20.83 5.3 32.03 4.39 2.65-6 8.26-17.96 8.84-29.08 3.29 13.25-3.26 22.89-4.06 29.53 3.46-2.2 8.17-1.95 12.11-.81 2.29-11.43 4.5-22.96 4.46-34.62-.04-9.63-1.61-19.2-1.77-28.82-.33-20.7 7.63-45.9 11.05-52.25 3.43-6.34 11-22.66 24.64-30.14-7.3-.19-14.85-1.2-21.87.8z"/></defs><g transform="translate(-648 -149)"><path d="m726.3 232.27c-1.02-2.65-4.83-.48-7.02 1.32a17.59 17.59 0 0 0 -5.08 7.52 85.77 85.77 0 0 1 -7.7 17.11c-1.22 2.08-3 4.36-5.41 4.2-2.8-.18-4.19-3.45-4.68-6.2-.42-2.39-.46-5.11-.2-8.02.22-.06.44-.12.65-.2l.04.02v-.02c1.2-.38 2.36-.92 3.43-1.63a19.12 19.12 0 0 1 -3.61-2.12c.34-2.02.8-4.1 1.34-6.16 1.62.69 2.87 1.29 3.3 1.51 4.27 2.24 9.06.58 11.87-3.33a92.45 92.45 0 0 0 -12.39-6.8c.38-.98.78-1.95 1.18-2.9.82-.25 1.94-.38 2.44-.41 4.46-.23 7.81.26 12.06-1.1 4.25-1.37 8.26-4.9 8.77-9.72l-18.67 2.36.64-.97c3.97-5.83 8.34-10 3.77-15.93-6.37 4.89-12.03 13.04-18.22 18.71-3.03.61-6.05 1.92-7.78 4.53l-.73-.18a5.4 5.4 0 0 0 -2.68-.15c-1.87.54-3.7 2.87-4.7 4.7-1.4 2.55-2.55 4.18-4.94 5.55l.23.03a20.8 20.8 0 0 0 -10.3 9.02c-4.03 7.19-7.6 11.25-6.6 19.42 1 8.18 1.98 26.9 1.85 35.14-.14 8.23-7.66 17.57-7.66 17.57-1 1.77-.25 7.7 6.84 14.06 7.08 6.37 16.31 8.3 23.95 5.6-1.1-9.07 3.03-18.03 8.44-25.4 5.41-7.39 12.16-13.72 17.48-21.16 10.38-14.5 14.79-32.3 18.98-49.61.31-1.3 1.58-5.12 1.1-6.36" fill="#fff"/><path d="m649.56 315.14c-1 1.78-.25 7.7 6.84 14.06 7.08 6.37 16.31 8.3 23.95 5.6-1.1-9.07 3.03-18.03 8.44-25.4 5.41-7.39 12.16-13.72 17.48-21.16 10.38-14.5 14.79-32.3 18.98-49.61.31-1.3 1.58-5.12 1.1-6.36-1-2.64-4.82-.48-7 1.32a17.58 17.58 0 0 0 -5.09 7.52 85.74 85.74 0 0 1 -7.7 17.11c-1.22 2.08-3 4.36-5.41 4.2-2.8-.18-4.19-3.45-4.68-6.2-1.98-11.19 4.45-30.1 10.85-39.49 3.97-5.83 8.34-10 3.77-15.93-7.23 5.55-13.55 15.32-20.78 20.87" style="stroke:#000;stroke-linecap:round;stroke-linejoin:round;stroke-miterlimit:50;stroke-width:2;fill:none"/><use fill="#fff" xlink:href="#a"/><use style="stroke:#000;stroke-linecap:round;stroke-linejoin:round;stroke-miterlimit:50;stroke-width:2;fill:none" xlink:href="#a"/><use fill="#fff" xlink:href="#b"/><use style="stroke:#000;stroke-linecap:round;stroke-linejoin:round;stroke-miterlimit:50;stroke-width:2;fill:none" xlink:href="#b"/><use fill="#fff" xlink:href="#c"/><g stroke="#000"><use fill="none" stroke-linecap="round" stroke-linejoin="round" stroke-miterlimit="50" stroke-width="2" xlink:href="#c"/><path d="m713.98 217.28a6.5 6.5 0 0 0 5.69 2.01 6.49 6.49 0 0 0 4.82-3.62l-.63.14" fill="none" stroke-linecap="round" stroke-linejoin="round" stroke-miterlimit="50" stroke-width="2"/><path d="m703.95 230.96c-.99.18-1.37 1.31-1.05 2.26.31.95 1.17 1.62 2.05 2.11a11.88 11.88 0 0 0 7.22 1.42c.15-.02.32-.05.4-.18.08-.12-.03-.34-.17-.29" fill="none" stroke-linecap="round" stroke-linejoin="round" stroke-miterlimit="50" stroke-width="2"/><path d="m692 241.34a2.79 2.79 0 0 0 -.73 2.68c.35 1.25 3.43 3.66 5.7 4" fill="none" stroke-linecap="round" stroke-linejoin="round" stroke-miterlimit="50" stroke-width="2"/></g><g><use fill="#fff" xlink:href="#d"/><use style="stroke:#000;stroke-linecap:round;stroke-linejoin:round;stroke-miterlimit:50;stroke-width:2;fill:none" xlink:href="#d"/></g><path d="m701.29 168.68a13.76 13.76 0 0 1 8.87-17.86 13.87 13.87 0 0 1 16.84 7.83c2.44 5.84.57 12.3-4.05 16.03a6.66 6.66 0 0 0 -2.05 7.47l2.19 6" style="stroke:#000;stroke-linecap:round;stroke-linejoin:round;stroke-miterlimit:50;stroke-width:2;fill:none"/><path d="m727.92 194.47a2.37 2.37 0 0 1 -4.45 1.62 2.37 2.37 0 0 1 4.45-1.62" fill="#111212"/><path d="m788 176a45.17 45.17 0 0 0 -22.88 15.75c-5.86 7.51-9.78 16.37-12.58 25.47a122.76 122.76 0 0 0 -5.43 36.7c.07 12.42 2.02 24.77 2.25 37.18.24 12.42-1.4 25.3-7.86 35.9" style="stroke:#111212;stroke-linecap:round;stroke-linejoin:round;stroke-miterlimit:50;stroke-width:2;fill:none"/></g></svg>