<svg height="149" viewBox="0 0 159 149" width="159" xmlns="http://www.w3.org/2000/svg" xmlns:xlink="http://www.w3.org/1999/xlink"><defs><path id="a" d="m776.84 171.4c-50.28 14.43-48.13 84.35-50.17 101.97-1.53 13.15-4.03 27.32-13.67 36.36 10.32 3.7 20.33 5.2 31.25 4.3 2.6-5.87 8.06-17.61 8.63-28.52 3.2 13-3.18 22.45-3.97 28.97 3.38-2.15 7.98-1.92 11.82-.8 2.23-11.2 4.4-22.53 4.35-33.96-.03-9.45-1.57-18.83-1.72-28.28-.32-20.31 7.44-45.04 10.78-51.26s10.74-22.23 24.04-29.57c-7.12-.18-14.48-1.17-21.34.8z"/><path id="b" d="m692.3 311.84-27.14 4.8-22.97-130.62 27.14-4.8z"/></defs><g transform="translate(-641 -169)"><g><use xlink:href="#a"/><use style="stroke:#000;stroke-linecap:round;stroke-linejoin:round;stroke-miterlimit:50;stroke-width:2;fill:none" xlink:href="#a"/></g><use fill="#fff" xlink:href="#b"/><g fill="none" stroke-linecap="round" stroke-linejoin="round" stroke-miterlimit="50" stroke-width="2"><use stroke="#000" xlink:href="#b"/><path d="m671.25 192.11-13.57 2.4" stroke="#000"/><path d="m674.44 210.25-8.14 1.44" stroke="#000"/><path d="m677.63 228.39-13.57 2.4" stroke="#000"/><path d="m680.82 246.53-8.14 1.44" stroke="#000"/><path d="m684.01 264.68-13.57 2.4" stroke="#000"/><path d="m687.2 282.82-8.14 1.44" stroke="#000"/><path d="m690.39 300.96-13.57 2.4" stroke="#111212"/></g></g></svg>