<svg height="138" viewBox="0 0 184 138" width="184" xmlns="http://www.w3.org/2000/svg" xmlns:xlink="http://www.w3.org/1999/xlink"><defs><path id="a" d="m709 211h15v-15h-15z"/></defs><g transform="translate(-628 -190)"><path d="m668 243.5a7.5 7.5 0 1 1 -15 0 7.5 7.5 0 0 1 15 0z" style="stroke:#0d0e0e;stroke-linecap:round;stroke-linejoin:round;stroke-miterlimit:50;stroke-width:2;fill:none"/><path d="m777 260.5a7.5 7.5 0 1 1 -15 0 7.5 7.5 0 0 1 15 0z" style="stroke:#0d0e0e;stroke-linecap:round;stroke-linejoin:round;stroke-miterlimit:50;stroke-width:2;fill:none"/><path d="m760 249.5a3.5 3.5 0 1 0 7 0 3.5 3.5 0 0 0 -7 0" fill="#fff"/><path d="m766 229.5a3.5 3.5 0 1 0 7 0 3.5 3.5 0 0 0 -7 0z" style="stroke:#0d0e0e;stroke-linecap:round;stroke-linejoin:round;stroke-miterlimit:50;stroke-width:2;fill:none"/><path d="m804 249.5a3.5 3.5 0 1 0 7 0 3.5 3.5 0 0 0 -7 0z" style="stroke:#0d0e0e;stroke-linecap:round;stroke-linejoin:round;stroke-miterlimit:50;stroke-width:2;fill:none"/><path d="m788 227.5a3.5 3.5 0 1 0 7 0 3.5 3.5 0 0 0 -7 0" fill="#fff"/><path d="m668 265.5a3.5 3.5 0 1 0 7 0 3.5 3.5 0 0 0 -7 0z" style="stroke:#0d0e0e;stroke-linecap:round;stroke-linejoin:round;stroke-miterlimit:50;stroke-width:2;fill:none"/><path d="m629 251.5a3.5 3.5 0 1 0 7 0 3.5 3.5 0 0 0 -7 0z" style="stroke:#0d0e0e;stroke-linecap:round;stroke-linejoin:round;stroke-miterlimit:50;stroke-width:2;fill:none"/><use fill="#0d0e0e" xlink:href="#a"/><use style="stroke:#0d0e0e;stroke-linecap:round;stroke-linejoin:round;stroke-miterlimit:50;stroke-width:5;fill:none" xlink:href="#a"/><path d="m706 202h22v-12h-22z" fill="#fff"/><path d="m705 203h23v-12h-23z" style="stroke:#0d0e0e;stroke-linecap:round;stroke-linejoin:round;stroke-miterlimit:50;stroke-width:2;fill:none"/><path d="m719.29 211h-5.58c-11.99 0-21.71 8.8-21.71 19.65v92.34s10.77 2.01 24.5 2.01 24.5-2.01 24.5-2.01v-92.34c0-10.85-9.72-19.65-21.71-19.65" fill="#0d0e0e"/><path d="m719.29 211h-5.58c-11.99 0-21.71 8.8-21.71 19.65v92.34s10.77 2.01 24.5 2.01 24.5-2.01 24.5-2.01v-92.34c0-10.85-9.72-19.65-21.71-19.65z" style="stroke:#0d0e0e;stroke-linecap:round;stroke-linejoin:round;stroke-miterlimit:50;stroke-width:5;fill:none"/></g></svg>