<svg height="132" viewBox="0 0 182 132" width="182" xmlns="http://www.w3.org/2000/svg" xmlns:xlink="http://www.w3.org/1999/xlink"><defs><path id="a" d="m693.74 264.82v45.78c0 9.4-12.3 12.9-17.25 4.92l-41.22-66.6"/><path id="b" d="m751.3 210.6s-60.24-20.4-81.98-20.4c-21.13 0-39.12 17.53-39.12 39.15s16.77 39.15 39.12 39.15c21.74 0 81.97-20.4 81.97-20.4"/></defs><g transform="translate(-629 -189)"><g><use fill="#fff" xlink:href="#a"/><use style="stroke:#000;stroke-linecap:round;stroke-linejoin:round;stroke-miterlimit:50;stroke-width:2;fill:none" xlink:href="#a"/></g><g><use fill="#fff" xlink:href="#b"/><use style="stroke:#000;stroke-linecap:round;stroke-linejoin:round;stroke-miterlimit:50;stroke-width:2;fill:none" xlink:href="#b"/></g><path d="m682.36 229.35a26.09 26.09 0 1 1 -26.08-26.1 26.09 26.09 0 0 1 26.08 26.1z" style="stroke:#000;stroke-linecap:round;stroke-linejoin:round;stroke-miterlimit:50;stroke-width:2;fill:none"/><path d="m760.59 229.34c0 10.82-5.84 19.58-13.04 19.58s-13.04-8.76-13.04-19.58c0-10.8 5.84-19.57 13.04-19.57s13.04 8.76 13.04 19.57"/><path d="m760.59 229.34c0 10.82-5.84 19.58-13.04 19.58s-13.04-8.76-13.04-19.58c0-10.8 5.84-19.57 13.04-19.57s13.04 8.76 13.04 19.57z" style="stroke:#000;stroke-linecap:round;stroke-linejoin:round;stroke-miterlimit:50;stroke-width:2;fill:none"/><path d="m687.22 277.87a3.26 3.26 0 1 1 -6.52 0 3.26 3.26 0 0 1 6.52 0"/><g style="stroke:#000;stroke-linecap:round;stroke-linejoin:round;stroke-miterlimit:50;stroke-width:2;fill:none"><path d="m687.22 277.87a3.26 3.26 0 1 1 -6.52 0 3.26 3.26 0 0 1 6.52 0z"/><path d="m772.9 229.35c7.55 6.73 21.47-6.2 36.36 0"/><path d="m766.38 209.77c10.39 2.33 15.27-6.4 24.15-3.2"/><path d="m766.38 248.92c6.52 6.52 16.06-3.95 24.15 3.2"/></g></g></svg>