<svg height="156" viewBox="0 0 136 156" width="136" xmlns="http://www.w3.org/2000/svg" xmlns:xlink="http://www.w3.org/1999/xlink"><defs><path id="a" d="m687.37 216.54c1.89-3.02 5.7-4.24 9.16-4.66l29.3-3.55c-.49 4.39-4.29 7.59-8.33 8.83-4.04 1.23-7.22.8-11.45 1-.69.04-2.57.28-3.1.71-.54.44-.75 1.38-.24 1.87"/><path id="b" d="m675.3 226.35c2.29-1.34 3.38-2.93 4.72-5.4.95-1.78 2.7-4.05 4.5-4.57a5.08 5.08 0 0 1 2.56.15 85.6 85.6 0 0 1 27.65 12.06c-2.69 3.8-7.27 5.41-11.35 3.24-1.34-.71-11.11-5.4-14.35-4"/><path id="c" d="m662.65 318.92s-11.54-9.18-9.11-15.38c0 0 7.17-8.87 7.3-16.7.12-7.82-.81-25.6-1.76-33.36-.96-7.77 2.44-11.63 6.28-18.46s12.35-11.55 19.78-8.94c6.58 2.3 10.44 9.35 16.83 12.14-5.95 3.92-14.82 2.5-19.25-3.05l-4.47 1.13a9.93 9.93 0 0 1 -9.87 6.13"/></defs><g transform="translate(-652 -169)"><path d="m726.9 225.03c-.97-2.53-4.62-.46-6.72 1.26a16.78 16.78 0 0 0 -4.86 7.18 81.68 81.68 0 0 1 -7.37 16.32c-1.18 1.98-2.89 4.16-5.2 4-2.68-.17-4-3.29-4.47-5.92-.4-2.26-.44-4.87-.2-7.64l.63-.18h.04l-.01-.01c1.15-.37 2.26-.88 3.29-1.55a18.33 18.33 0 0 1 -3.46-2.03c.33-1.93.76-3.9 1.28-5.88 1.56.66 2.75 1.23 3.16 1.45 4.1 2.13 8.68.55 11.38-3.18a88.65 88.65 0 0 0 -11.87-6.49c.37-.94.74-1.87 1.13-2.77a12 12 0 0 1 2.34-.4c4.27-.21 7.48.25 11.55-1.05s7.9-4.66 8.4-9.27l-17.88 2.26.6-.93c3.81-5.56 8-9.54 3.62-15.2-6.1 4.67-11.52 12.44-17.46 17.85-2.9.59-5.79 1.84-7.45 4.32l-.7-.16a5.2 5.2 0 0 0 -2.57-.15c-1.79.51-3.54 2.74-4.5 4.48-1.34 2.43-2.43 4-4.73 5.3l.23.03a19.9 19.9 0 0 0 -9.87 8.6c-3.86 6.87-7.27 10.74-6.32 18.54.96 7.8 1.9 25.66 1.77 33.52s-7.33 16.77-7.33 16.77c-.97 1.7-.24 7.34 6.54 13.42 6.79 6.08 15.63 7.93 22.95 5.35-1.05-8.66 2.9-17.21 8.08-24.25s11.64-13.09 16.74-20.19c9.95-13.83 14.17-30.81 18.18-47.34.3-1.23 1.51-4.87 1.06-6.06" fill="#fff"/><path d="m653.35 304.1c-.97 1.7-.24 7.34 6.54 13.42 6.79 6.08 15.63 7.93 22.95 5.35-1.05-8.66 2.9-17.21 8.08-24.25s11.64-13.09 16.74-20.19c9.95-13.83 14.17-30.81 18.18-47.34.3-1.23 1.51-4.87 1.06-6.06-.97-2.52-4.62-.46-6.72 1.26a16.77 16.77 0 0 0 -4.86 7.18 81.69 81.69 0 0 1 -7.37 16.32c-1.18 1.98-2.89 4.16-5.2 4-2.68-.17-4-3.29-4.47-5.92-1.9-10.66 4.26-28.7 10.39-37.67 3.8-5.56 7.99-9.54 3.6-15.2-6.92 5.3-12.97 14.62-19.9 19.92" style="stroke:#0d0e0e;stroke-linecap:round;stroke-linejoin:round;stroke-miterlimit:50;stroke-width:2;fill:none"/><use fill="#fff" xlink:href="#a"/><use style="stroke:#0d0e0e;stroke-linecap:round;stroke-linejoin:round;stroke-miterlimit:50;stroke-width:2;fill:none" xlink:href="#a"/><use fill="#fff" xlink:href="#b"/><use style="stroke:#0d0e0e;stroke-linecap:round;stroke-linejoin:round;stroke-miterlimit:50;stroke-width:2;fill:none" xlink:href="#b"/><use fill="#fff" xlink:href="#c"/><g style="stroke:#0d0e0e;stroke-linecap:round;stroke-linejoin:round;stroke-miterlimit:50;stroke-width:2;fill:none"><use xlink:href="#c"/><path d="m715 210.3a6.83 6.83 0 0 0 5.41 1.64 6.15 6.15 0 0 0 4.59-2.94l-.6.11"/><path d="m705.06 224c-.9.19-1.25 1.34-.96 2.31a4.04 4.04 0 0 0 1.88 2.15 9.98 9.98 0 0 0 6.63 1.45c.14-.02.29-.05.36-.18.08-.12-.02-.35-.15-.3"/><path d="m694.85 234a2.95 2.95 0 0 0 -.75 2.8c.37 1.32 3.56 3.85 5.9 4.2"/></g><path d="m765.95 171.18c-49.58 14.1-47.46 82.42-49.47 99.64-1.5 12.85-3.97 26.7-13.48 35.53 10.18 3.62 20.05 5.1 30.82 4.21 2.55-5.74 7.94-17.22 8.5-27.87 3.17 12.7-3.13 21.94-3.9 28.31 3.33-2.1 7.86-1.88 11.65-.78 2.2-10.96 4.33-22.02 4.29-33.2-.03-9.22-1.55-18.4-1.7-27.63-.32-19.85 7.34-44.01 10.63-50.09 3.3-6.08 10.59-21.72 23.71-28.9-7.03-.18-14.29-1.14-21.05.78" fill="#0d0e0e"/><path d="m765.95 171.18c-49.58 14.1-47.46 82.42-49.47 99.64-1.5 12.85-3.97 26.7-13.48 35.53 10.18 3.62 20.05 5.1 30.82 4.21 2.55-5.74 7.94-17.22 8.5-27.87 3.17 12.7-3.13 21.94-3.9 28.31 3.33-2.1 7.86-1.88 11.65-.78 2.2-10.96 4.33-22.02 4.29-33.2-.03-9.22-1.55-18.4-1.7-27.63-.32-19.85 7.34-44.01 10.63-50.09 3.3-6.08 10.59-21.72 23.71-28.9-7.03-.18-14.29-1.14-21.05.78z" style="stroke:#0d0e0e;stroke-linecap:round;stroke-linejoin:round;stroke-miterlimit:50;stroke-width:2;fill:none"/><path d="m744 227c-3.28 0-5.67-2.68-4.83-5.41l4.83-15.59 4.83 15.59c.84 2.73-1.55 5.41-4.83 5.41" fill="#fff"/><path d="m744 227c-3.28 0-5.67-2.68-4.83-5.41l4.83-15.59 4.83 15.59c.84 2.73-1.55 5.41-4.83 5.41z" style="stroke:#0d0e0e;stroke-linecap:round;stroke-linejoin:round;stroke-miterlimit:50;stroke-width:2;fill:none"/><path d="m736 260c-3.94 0-6.81-3.32-5.8-6.7l5.8-19.3 5.8 19.3c1.01 3.38-1.86 6.7-5.8 6.7" fill="#fff"/><path d="m736 260c-3.94 0-6.81-3.32-5.8-6.7l5.8-19.3 5.8 19.3c1.01 3.38-1.86 6.7-5.8 6.7z" style="stroke:#0d0e0e;stroke-linecap:round;stroke-linejoin:round;stroke-miterlimit:50;stroke-width:2;fill:none"/></g></svg>