<svg height="170" viewBox="0 0 156 170" width="156" xmlns="http://www.w3.org/2000/svg" xmlns:xlink="http://www.w3.org/1999/xlink"><defs><path id="a" d="m686 310s-3.73 17.04-22 17"/></defs><g transform="translate(-642 -159)"><path d="m775.16 160.92c-51.9 13.1-52.18 85.55-54.9 103.72-2.03 13.55-5.09 28.13-15.26 37.14 10.41 4.2 20.59 6.12 31.78 5.59 2.86-6 8.86-17.95 9.83-29.21 2.82 13.56-4.04 23.12-5.08 29.84 3.53-2.1 8.22-1.7 12.11-.4 2.68-11.52 5.29-23.16 5.65-35 .3-9.77-.94-19.55-.75-29.33.39-21.03 9.2-46.34 12.84-52.66s11.76-22.62 25.62-29.74c-7.28-.45-14.76-1.74-21.84.05" fill="#fff"/><path d="m775.16 160.92c-51.9 13.1-52.18 85.55-54.9 103.72-2.03 13.55-5.09 28.13-15.26 37.14 10.41 4.2 20.59 6.12 31.78 5.59 2.86-6 8.86-17.95 9.83-29.21 2.82 13.56-4.04 23.12-5.08 29.84 3.53-2.1 8.22-1.7 12.11-.4 2.68-11.52 5.29-23.16 5.65-35 .3-9.77-.94-19.55-.75-29.33.39-21.03 9.2-46.34 12.84-52.66s11.76-22.62 25.62-29.74c-7.28-.45-14.76-1.74-21.84.05z" style="stroke:#111212;stroke-linecap:round;stroke-linejoin:round;stroke-miterlimit:50;stroke-width:2;fill:none"/><path d="m710.06 240.61c-7.41-1.28-17.27 4.19-22.12 8.02-4.98 3.94-5.67 5.38-9.13 5.34-3.47-.03-9.12-2.56-8.55-6.33.58-3.77 7.5-6.12 9.59-7.23 7.9-4.21 19.18.61 27.41-.6 3.06-.45 8.15-4.67 7.25-8.32-8.45-.43-17.03-.15-25.19-2.4-2.82-.77-5.57-.89-8.69-.32-3.62.65-6.87 2.77-10.52 3.78-2.44.68-5 1.08-7.56 1.43l8.48-2.13c-.17.29 4.2-6.63 6.66-9.3 3.07-3.33 8.5-5.46 12.53-7.8 5.8-3.38 13.82-5.85 15.91-11.33.66-1.71.32-6.75-2.01-6.76-1.74-.01-6.02 4.06-7.65 4.9-6.23 3.2-13.7 5.34-20.01 8.77l.53-.5s2.2-4.18 2.86-5.32a56.46 56.46 0 0 0 3.66-7.4c1.5-3.76 2.34-8.82-2.32-11.11-1.83 1.44-2.66 6.46-3.93 8.73-2.28 4.07-5.3 7.56-8.42 11.13-2.5 2.86-5.26 5.36-7 8.85-1.74 3.53-1.68 8.32-3.35 12.2l3.44-3.17a50.9 50.9 0 0 1 -4.22 4.24c-2.28 2-4.68 3.9-6.85 5.95a365.88 365.88 0 0 0 -4.14 4.04l.66-.17c-3.5 2.07-2.23 4.7-2.68 8.18-1.11 8.63-1.89 17.47-1.49 26.18.48 10.3-1.83 23.4 2.37 33.05 3.54 8.1 10.65 14.56 15.5 21.79 0 0 8.7-.11 14.13-3.17 4.24-2.38 8.14-6.67 9.7-11.03 1.83-5.08-3.49-7.3-6.55-11.08-2.21-2.74-5.46-6.58-5.62-10.2l-5.28 10.64c-.2-5.99 5.84-10.74 8.97-16.27 3.11-5.5 5.04-11.68 8.4-17.11 2.43-3.94 5.63-6 8.2-9.42 2.72-3.61 6.41-5.28 10.3-7.44.85-.47 2.3-1.12 3.9-1.9h.17l.32-.23c3.23-1.58 6.85-3.6 7.26-5.58.27-1.26-2.51-3.18-4.92-3.6" fill="#fff"/><use fill="#fff" xlink:href="#a"/><use style="stroke:#111212;stroke-linecap:round;stroke-linejoin:round;stroke-miterlimit:50;stroke-width:2;fill:none" xlink:href="#a"/><path d="m795 161c-10.56 2.03-20.06 6.9-27.26 13.75a50.25 50.25 0 0 0 -4.9 5.5c-1.47 1.95-2.8 4-4 6.14a83.32 83.32 0 0 0 -3.33 6.6c-1.04 2.26-2.01 4.56-2.95 6.9l-2.88 7.04c-1 2.36-2.02 4.73-3.16 7.07a62 62 0 0 1 -8.48 13.4 37.31 37.31 0 0 1 -12.94 9.93 29.92 29.92 0 0 1 -7.94 2.38c-.68.12-1.37.17-2.05.22-.69.08-1.38.05-2.06.07-.34 0-.69-.02-1.03-.05l-1.02-.08c-.67-.07-1.34-.2-2-.3l2-.1 1-.13c.33-.04.66-.07.98-.14.65-.13 1.3-.2 1.93-.39.64-.16 1.27-.3 1.88-.53 2.47-.8 4.8-1.89 6.94-3.22a35.33 35.33 0 0 0 5.92-4.58c.89-.87 1.75-1.75 2.55-2.68.4-.47.8-.92 1.16-1.42l.57-.73.55-.74a68.92 68.92 0 0 0 7.13-12.92c1-2.27 1.95-4.59 2.86-6.93l2.82-7.07c.98-2.37 2-4.74 3.12-7.1a76.48 76.48 0 0 1 3.75-6.94 52.45 52.45 0 0 1 4.71-6.52 47.81 47.81 0 0 1 5.85-5.71l1.6-1.26c.56-.41 1.13-.8 1.69-1.19.55-.4 1.14-.75 1.72-1.12.57-.36 1.16-.72 1.77-1.04.6-.32 1.19-.67 1.8-.97l1.85-.9c1.27-.54 2.52-1.1 3.82-1.53 2.58-.91 5.22-1.66 7.92-2.08.67-.14 1.36-.2 2.03-.3l1-.12 1.02-.08c1.36-.12 2.71-.14 4.06-.13" fill="#fff"/><g style="stroke:#111212;stroke-linecap:round;stroke-linejoin:round;stroke-miterlimit:50;stroke-width:2;fill:none"><path d="m795 161c-10.56 2.03-20.06 6.9-27.26 13.75a50.25 50.25 0 0 0 -4.9 5.5c-1.47 1.95-2.8 4-4 6.14a83.32 83.32 0 0 0 -3.33 6.6c-1.04 2.26-2.01 4.56-2.95 6.9l-2.88 7.04c-1 2.36-2.02 4.73-3.16 7.07a62 62 0 0 1 -8.48 13.4 37.31 37.31 0 0 1 -12.94 9.93 29.92 29.92 0 0 1 -7.94 2.38c-.68.12-1.37.17-2.05.22-.69.08-1.38.05-2.06.07-.34 0-.69-.02-1.03-.05l-1.02-.08c-.67-.07-1.34-.2-2-.3l2-.1 1-.13c.33-.04.66-.07.98-.14.65-.13 1.3-.2 1.93-.39.64-.16 1.27-.3 1.88-.53 2.47-.8 4.8-1.89 6.94-3.22a35.33 35.33 0 0 0 5.92-4.58c.89-.87 1.75-1.75 2.55-2.68.4-.47.8-.92 1.16-1.42l.57-.73.55-.74a68.92 68.92 0 0 0 7.13-12.92c1-2.27 1.95-4.59 2.86-6.93l2.82-7.07c.98-2.37 2-4.74 3.12-7.1a76.48 76.48 0 0 1 3.75-6.94 52.45 52.45 0 0 1 4.71-6.52 47.81 47.81 0 0 1 5.85-5.71l1.6-1.26c.56-.41 1.13-.8 1.69-1.19.55-.4 1.14-.75 1.72-1.12.57-.36 1.16-.72 1.77-1.04.6-.32 1.19-.67 1.8-.97l1.85-.9c1.27-.54 2.52-1.1 3.82-1.53 2.58-.91 5.22-1.66 7.92-2.08.67-.14 1.36-.2 2.03-.3l1-.12 1.02-.08c1.36-.12 2.71-.14 4.06-.13z"/><path d="m647 238s2.87-2.85 4.1-4.01c2.14-2.03 4.5-3.92 6.76-5.9 4.35-3.84 7.54-8.5 11.58-12.5 6.89-6.86 18.03-9.25 26.72-13.73 1.6-.83 5.84-4.87 7.56-4.86 2.3.01 2.64 5.01 1.99 6.72-2.07 5.43-10 7.88-15.72 11.23-3.98 2.33-9.36 4.45-12.39 7.75-2.42 2.64-6.74 9.51-6.58 9.23"/><path d="m660 227c1.72-3.9 1.66-8.7 3.46-12.23 1.78-3.5 4.63-6 7.2-8.87 3.21-3.57 6.34-7.08 8.68-11.16 1.3-2.27 2.17-7.3 4.06-8.74 4.8 2.3 3.92 7.36 2.38 11.12-1.09 2.64-2.33 5.01-3.76 7.43-.68 1.14-2.96 5.33-2.96 5.33"/><path d="m667.46 303.05c-.2-6 5.84-10.78 8.97-16.34 3.11-5.52 5.04-11.72 8.4-17.18 2.43-3.96 5.63-6.03 8.2-9.46 2.72-3.62 6.41-5.3 10.3-7.47 2.61-1.46 11.01-4.65 11.65-7.74.27-1.26-2.51-3.2-4.92-3.61-7.41-1.29-17.27 4.2-22.12 8.05-4.98 3.96-5.67 5.4-9.13 5.37-3.47-.04-9.12-2.57-8.55-6.36.58-3.79 7.5-6.15 9.59-7.26 7.9-4.23 19.18.61 27.41-.6 3.06-.46 8.15-4.7 7.25-8.37-8.45-.42-17.03-.14-25.19-2.4-2.82-.77-5.57-.9-8.69-.33-3.62.66-6.87 2.79-10.52 3.8-7.4 2.08-15.84 1.53-22.44 5.1-3.85 2.1-2.51 4.8-2.97 8.39-1.11 8.67-1.89 17.54-1.49 26.3.48 10.34-1.83 23.49 2.37 33.17 3.54 8.15 10.65 14.63 15.5 21.89 0 0 8.7-.11 14.13-3.18 4.24-2.39 8.14-6.7 9.7-11.08 1.83-5.1-3.49-7.33-6.55-11.13-2.21-2.75-5.46-6.6-5.62-10.25"/><path d="m713.67 244.28s.6-.48.18-1.02c-1.28-.86-5.3.49-7.04 2.57-.48.58-.9 1.3-.8 2.07.11.76.89 1.2 1.47 1.08"/></g></g></svg>