<svg height="168" viewBox="0 0 146 168" width="146" xmlns="http://www.w3.org/2000/svg" xmlns:xlink="http://www.w3.org/1999/xlink"><defs><path id="a" d="m678 220.92c2.06-3.65 6.21-5.13 10-5.63l32-4.29c-.54 5.3-4.69 9.17-9.1 10.66-4.4 1.5-7.88.97-12.5 1.22-.76.04-2.81.34-3.4.86-.58.52-.8 1.66-.25 2.26"/><path id="b" d="m652.27 331s-12.54-9.82-9.9-16.44c0 0 7.79-9.48 7.93-17.84s-.88-27.36-1.92-35.66c-1.03-8.3 2.66-12.42 6.83-19.72 4.18-7.3 13.43-12.35 21.5-9.56 7.15 2.46 11.35 10 18.29 12.98-6.47 4.18-16.1 2.67-20.92-3.27l-4.86 1.21a10.8 10.8 0 0 1 -10.72 6.56"/><path id="c" d="m678.67 201 19.33-18.73h-10.37l5.99-12.27-16.62 16.89h10.31z"/></defs><g transform="translate(-641 -169)"><path d="m720.9 230.13c-1.04-2.7-4.94-.5-7.18 1.35a17.95 17.95 0 0 0 -5.2 7.67 87.47 87.47 0 0 1 -7.86 17.46c-1.25 2.12-3.08 4.45-5.54 4.3-2.87-.2-4.28-3.53-4.78-6.35a31.64 31.64 0 0 1 -.2-8.18c.22-.06.44-.12.66-.2l.04.02-.01-.02a14.1 14.1 0 0 0 3.5-1.66 19.56 19.56 0 0 1 -3.68-2.16c.35-2.07.81-4.18 1.37-6.3 1.66.7 2.93 1.32 3.37 1.55 4.37 2.28 9.27.59 12.14-3.4a94.58 94.58 0 0 0 -12.66-6.94c.39-1 .79-2 1.2-2.97.84-.25 1.99-.39 2.5-.41 4.56-.24 7.98.26 12.33-1.13 4.35-1.4 8.44-4.99 8.97-9.92l-19.1 2.41.66-.99c4.06-5.95 8.53-10.2 3.85-16.26-6.5 5-12.3 13.31-18.63 19.1-3.1.62-6.18 1.96-7.96 4.62l-.74-.18c-.9-.2-1.85-.4-2.74-.15-1.92.54-3.8 2.93-4.81 4.79-1.43 2.6-2.6 4.27-5.05 5.67l.24.03a21.27 21.27 0 0 0 -10.53 9.2c-4.13 7.34-7.77 11.49-6.75 19.83 1.02 8.35 2.03 27.46 1.89 35.87-.14 8.4-7.83 17.93-7.83 17.93-1.03 1.82-.25 7.86 6.99 14.36s16.68 8.48 24.5 5.72c-1.13-9.26 3.1-18.41 8.63-25.94s12.42-14 17.87-21.6c10.61-14.8 15.12-32.96 19.4-50.64.32-1.32 1.62-5.22 1.13-6.48" fill="#fff"/><path d="m642.37 314.71c-1.03 1.82-.25 7.86 6.99 14.36s16.68 8.48 24.5 5.72c-1.13-9.27 3.1-18.41 8.63-25.94s12.42-14 17.87-21.6c10.61-14.8 15.12-32.96 19.4-50.64.32-1.32 1.62-5.22 1.13-6.48-1.03-2.7-4.93-.5-7.17 1.35a17.94 17.94 0 0 0 -5.2 7.67 87.47 87.47 0 0 1 -7.86 17.46c-1.25 2.12-3.08 4.45-5.54 4.29-2.87-.19-4.28-3.52-4.78-6.34-2.03-11.4 4.54-30.71 11.09-40.3 4.06-5.95 8.53-10.2 3.85-16.26-7.4 5.67-13.85 15.64-21.25 21.3" style="stroke:#111212;stroke-linecap:round;stroke-linejoin:round;stroke-miterlimit:50;stroke-width:2;fill:none"/><use fill="#fff" xlink:href="#a"/><use style="stroke:#111212;stroke-linecap:round;stroke-linejoin:round;stroke-miterlimit:50;stroke-width:2;fill:none" xlink:href="#a"/><path d="m667 230.36c2.44-1.37 3.6-3 5.02-5.56 1.02-1.82 2.89-4.15 4.8-4.68a5.6 5.6 0 0 1 2.72.15 92.9 92.9 0 0 1 29.46 12.4c-2.86 3.9-7.74 5.56-12.09 3.33-1.43-.74-11.84-5.55-15.29-4.12" fill="#fff"/><path d="m667 231.36c2.44-1.37 3.6-3 5.02-5.56 1.02-1.82 2.89-4.15 4.8-4.68a5.6 5.6 0 0 1 2.72.15 92.9 92.9 0 0 1 29.46 12.4c-2.86 3.9-7.74 5.56-12.09 3.33-1.43-.74-11.84-5.55-15.29-4.12" style="stroke:#111212;stroke-linecap:round;stroke-linejoin:round;stroke-miterlimit:50;stroke-width:2;fill:none"/><use fill="#fff" xlink:href="#b"/><use style="stroke:#111212;stroke-linecap:round;stroke-linejoin:round;stroke-miterlimit:50;stroke-width:2;fill:none" xlink:href="#b"/><path d="m708 213.3a8.02 8.02 0 0 0 5.95 1.64c2.17-.25 4.13-1.4 5.05-2.94l-.66.11" style="stroke:#111212;stroke-linecap:round;stroke-linejoin:round;stroke-miterlimit:50;stroke-width:2;fill:none"/><path d="m700.06 229c-.9.16-1.25 1.12-.96 1.93.29.8 1.08 1.37 1.88 1.79 2 1.04 4.36 1.47 6.63 1.2.14-.01.29-.04.36-.14.08-.1-.02-.3-.15-.25" style="stroke:#111212;stroke-linecap:round;stroke-linejoin:round;stroke-miterlimit:50;stroke-width:2;fill:none"/><path d="m686.85 239c-.42.37-1.11 1.28-.75 2.4.37 1.13 3.56 3.3 5.9 3.6" style="stroke:#111212;stroke-linecap:round;stroke-linejoin:round;stroke-miterlimit:50;stroke-width:2;fill:none"/><path d="m763.45 171.25c-53.13 15-50.85 87.69-53.01 106.01-1.61 13.67-4.26 28.4-14.44 37.8 10.9 3.85 21.48 5.4 33.02 4.47 2.73-6.1 8.51-18.31 9.11-29.65 3.4 13.5-3.36 23.34-4.19 30.12 3.58-2.24 8.43-2 12.5-.83 2.35-11.66 4.63-23.42 4.59-35.31-.04-9.82-1.66-19.58-1.82-29.4-.34-21.12 7.86-46.82 11.39-53.29s11.34-23.11 25.4-30.74c-7.53-.2-15.3-1.22-22.55.82" fill="#fff"/><path d="m763.45 171.25c-53.13 15-50.85 87.69-53.01 106.01-1.61 13.67-4.26 28.4-14.44 37.8 10.9 3.85 21.48 5.4 33.02 4.47 2.73-6.1 8.51-18.31 9.11-29.65 3.4 13.5-3.36 23.34-4.19 30.12 3.58-2.24 8.43-2 12.5-.83 2.35-11.66 4.63-23.42 4.59-35.31-.04-9.82-1.66-19.58-1.82-29.4-.34-21.12 7.86-46.82 11.39-53.29s11.34-23.11 25.4-30.74c-7.53-.2-15.3-1.22-22.55.82z" style="stroke:#111212;stroke-linecap:round;stroke-linejoin:round;stroke-miterlimit:50;stroke-width:2;fill:none"/><use fill="#fff" xlink:href="#c"/><g style="stroke:#111212;stroke-linecap:round;stroke-linejoin:round;stroke-miterlimit:50;stroke-width:2;fill:none"><use xlink:href="#c"/><path d="m717 203-1-11"/><path d="m731 212 6-2"/><path d="m732 223 4 2"/><path d="m725 232c.34 3.14 1.02 6.2 2 9"/></g></g></svg>