<svg height="158" viewBox="0 0 157 158" width="157" xmlns="http://www.w3.org/2000/svg"><g transform="translate(-636 -179)"><path d="m699.4 256.35c-6.9-1.18-16.07 3.86-20.58 7.4-4.64 3.63-5.27 4.95-8.5 4.92-3.22-.03-8.49-2.36-7.95-5.84.54-3.47 6.98-5.64 8.92-6.66 7.36-3.89 17.85.56 25.5-.56 2.86-.42 7.6-4.3 6.75-7.67-7.86-.4-15.84-.14-23.43-2.2a17.8 17.8 0 0 0 -8.09-.31c-3.37.6-6.4 2.56-9.8 3.5-2.27.62-4.64.98-7.03 1.31l7.89-1.97c-.15.27 3.91-6.11 6.2-8.57 2.85-3.07 7.91-5.03 11.67-7.2 5.39-3.11 12.85-5.38 14.8-10.43.6-1.59.3-6.24-1.88-6.24-1.61-.01-5.6 3.74-7.11 4.51-5.8 2.95-12.76 4.93-18.63 8.09l.5-.46s2.05-3.85 2.67-4.9c1.29-2.23 2.41-4.4 3.4-6.83 1.39-3.47 2.18-8.13-2.16-10.24-1.7 1.33-2.48 5.95-3.66 8.04-2.12 3.76-4.94 6.98-7.84 10.27-2.32 2.64-4.89 4.94-6.5 8.16-1.63 3.25-1.57 7.67-3.13 11.26l3.2-2.93a47.15 47.15 0 0 1 -3.92 3.9c-2.12 1.85-4.35 3.6-6.38 5.49-1.15 1.08-3.85 3.73-3.85 3.73l.62-.16c-3.25 1.9-2.08 4.33-2.5 7.54-1.03 7.96-1.76 16.1-1.38 24.14.44 9.5-1.71 21.58 2.2 30.47 3.3 7.48 9.9 13.42 14.43 20.09 0 0 8.09-.1 13.14-2.92 3.95-2.2 7.58-6.16 9.03-10.17 1.7-4.68-3.25-6.73-6.1-10.22-2.05-2.53-5.07-6.06-5.22-9.4l-4.92 9.8c-.18-5.51 5.43-9.9 8.35-15 2.9-5.07 4.7-10.76 7.81-15.77 2.27-3.63 5.24-5.54 7.64-8.69 2.53-3.32 5.96-4.86 9.58-6.86.79-.43 2.14-1.03 3.63-1.74l.16-.01.3-.2c3-1.46 6.37-3.32 6.75-5.15.25-1.16-2.34-2.94-4.57-3.32" fill="#fff"/><path d="m676 319s-3.4 16.03-20 16" fill="#fff"/><g style="stroke:#111212;stroke-linecap:round;stroke-linejoin:round;stroke-miterlimit:50;stroke-width:2;fill:none"><path d="m642.88 252.28c2.04-1.88 6.29-6.63 8.43-8.47 4.12-3.55 7.15-7.87 10.99-11.59 6.53-6.35 17.1-8.56 25.36-12.71 1.52-.77 5.54-4.52 7.17-4.51 2.18 0 2.5 4.65 1.89 6.22-1.96 5.04-9.48 7.31-14.92 10.42-3.78 2.16-8.88 4.12-11.76 7.18-2.3 2.45-6.4 8.81-6.25 8.55"/><path d="m654 241c1.6-3.61 1.53-8.06 3.2-11.34 1.66-3.24 4.3-5.56 6.67-8.22 2.98-3.3 5.87-6.56 8.04-10.34 1.2-2.1 2-6.76 3.75-8.1 4.45 2.13 3.64 6.82 2.2 10.31-1 2.45-2.15 4.64-3.48 6.88-.62 1.06-2.73 4.94-2.73 4.94"/><path d="m659.76 313.07c-.18-5.53 5.43-9.91 8.35-15.02 2.9-5.08 4.7-10.78 7.81-15.8 2.27-3.63 5.24-5.54 7.64-8.69 2.53-3.33 5.96-4.87 9.58-6.87 2.43-1.34 10.25-4.27 10.84-7.1.25-1.17-2.34-2.95-4.57-3.33-6.9-1.19-16.08 3.86-20.6 7.4-4.63 3.64-5.26 4.96-8.49 4.93-3.22-.03-8.49-2.36-7.95-5.84s6.98-5.66 8.92-6.68c7.36-3.89 17.85.57 25.5-.55 2.86-.42 7.6-4.32 6.75-7.68-7.86-.4-15.84-.14-23.43-2.21a17.78 17.78 0 0 0 -8.09-.3c-3.37.6-6.4 2.55-9.8 3.49-6.89 1.9-14.73 1.4-20.87 4.7-3.6 1.92-2.34 4.39-2.77 7.7-1.03 7.96-1.76 16.12-1.38 24.16.44 9.51-1.71 21.6 2.2 30.5 3.3 7.5 9.9 13.45 14.43 20.12 0 0 8.09-.1 13.14-2.92 3.95-2.2 7.58-6.17 9.03-10.19 1.7-4.68-3.25-6.73-6.1-10.23-2.05-2.53-5.07-6.07-5.22-9.42"/><path d="m702.85 258.3c-1.28-1-5.3.57-7.04 3-.48.67-.9 1.53-.8 2.42.11.89.89 1.39 1.47 1.26"/></g><path d="m757.13 323.08s-4.98-2.83-10.38-.36c0 0-5.12-10.35-3.42-16.33 2.48-8.69 9.24-12.77 3.6-19.95 4.87 7.92-5.78 8.33-8.66 18.63-2.17 7.78 4.61 15.37 1.22 18.87 0 0-22.76 1.12-37.49-6.58 11.67-6.85 3.37-17.5 7.05-27.25 2.93-7.77 12.6-8.63 14.58-15.06 2.76-9-4.86-10.05-3.37-18.79 1.49-8.73 11.85-10.07 14.76-16.09 2.91-6.01-3.29-11.34-.99-19.28s10.67-7.8 15.88-13.97c5.21-6.18 3.4-12.27 10.5-18.56 7.9-7.01 21.75-8.42 31.59-6.69-3.45-.49-7.73.5-10.9 1.98-3.18 1.46-5.47 5.63-3.8 8.83 1.1 2.15 3.58 3.21 4.74 5.33 1.8 3.3-.49 7.6-3.6 9.57-3.1 1.96-6.84 2.46-10.2 3.91-3.35 1.46-6.6 4.52-6.37 8.32.34 5.45 7.42 8.4 7.8 13.86.24 3.21-2.03 6.03-4.5 7.94s-5.34 3.37-7.3 5.85a11.87 11.87 0 0 0 -.87 12.88c2.63 4.53 7.63 13.32 7.27 18.6-1.34 19.18-12.6 26.87-7.14 44.34" fill="#fff"/><path d="m746.75 322.72s-5.12-10.35-3.42-16.33c2.48-8.69 9.24-22.77 3.6-29.95 4.87 7.92-15.78 18.33-18.66 28.63-2.17 7.78 4.61 15.37 1.22 18.87 0 0-12.76 1.12-27.49-6.58 11.67-6.85 3.37-17.5 7.05-27.25 2.93-7.77 12.6-8.63 14.58-15.06 2.76-9-4.86-10.05-3.37-18.79 1.49-8.73 11.85-10.07 14.76-16.09 2.91-6.01-3.29-11.34-.99-19.28s10.67-7.8 15.88-13.97c5.21-6.18 3.4-12.27 10.5-18.56 7.9-7.01 21.75-8.42 31.59-6.69-3.45-.49-7.73.5-10.9 1.98-3.18 1.46-5.47 5.63-3.8 8.83 1.1 2.15 3.58 3.21 4.74 5.33 1.8 3.3-.49 7.6-3.6 9.57-3.1 1.96-6.84 2.46-10.2 3.91-3.35 1.46-6.6 4.52-6.37 8.32.34 5.45 7.42 8.4 7.8 13.86.24 3.21-2.03 6.03-4.5 7.94s-5.34 3.37-7.3 5.85a11.87 11.87 0 0 0 -.87 12.88c2.63 4.53 7.63 13.32 7.27 18.6-1.34 19.18-12.6 26.87-7.14 44.34 0 0-4.98-2.83-10.38-.36z" style="stroke:#111212;stroke-linecap:round;stroke-linejoin:round;stroke-miterlimit:50;stroke-width:2;fill:none"/><path d="m791 181.82c-13.6-3.58-32.34-1.77-39.8 4.53-8.55 7.23-6.52 14.72-12.69 17.5-7.01 3.15-9.95-2.85-15.74 2.16-5.7 4.93-.72 12.02-3.17 16.62-2.82 5.3-8.43 1.76-11.63 6.1-3.2 4.33.22 8.8 1.46 12.4 2.07 6.04.3 14-12.43 14.87" style="stroke:#111212;stroke-linecap:round;stroke-linejoin:round;stroke-miterlimit:50;stroke-width:2;fill:none"/></g></svg>