<svg height="165" viewBox="0 0 149 165" width="149" xmlns="http://www.w3.org/2000/svg" xmlns:xlink="http://www.w3.org/1999/xlink"><defs><path id="a" d="m643 214h18v-15h-18z"/><path id="b" d="m671 341.5s-9.64 1.5-19.5 1.5-19.5-1.5-19.5-1.5v-109.67c0-10.4 8.25-18.82 18.43-18.82h2.14c10.18 0 18.43 8.43 18.43 18.82z"/><path id="c" d="m640 216h24v-4h-24z"/><path id="d" d="m696.36 244.64 7.64 2.36-7.64 2.36-2.36 7.64-2.36-7.64-7.64-2.36 7.64-2.36 2.36-7.64z"/><path id="e" d="m684 207 36-6"/></defs><g transform="translate(-631 -179)"><use fill="#fff" xlink:href="#a"/><use style="stroke:#111212;stroke-linecap:round;stroke-linejoin:round;stroke-miterlimit:50;stroke-width:2;fill:none" xlink:href="#a"/><use fill="#111212" xlink:href="#b"/><use style="stroke:#111212;stroke-linecap:round;stroke-linejoin:round;stroke-miterlimit:50;stroke-width:2;fill:none" xlink:href="#b"/><use fill="#fff" xlink:href="#c"/><use style="stroke:#111212;stroke-linecap:round;stroke-linejoin:round;stroke-miterlimit:50;stroke-width:2;fill:none" xlink:href="#c"/><path d="m652 206a4 4 0 1 0 8 0 4 4 0 0 0 -8 0" fill="#fff"/><path d="m652 206a4 4 0 1 0 8 0 4 4 0 0 0 -8 0z" style="stroke:#111212;stroke-linecap:round;stroke-linejoin:round;stroke-miterlimit:50;stroke-width:2;fill:none"/><use fill="#fff" xlink:href="#d"/><use style="stroke:#111212;stroke-linecap:round;stroke-linejoin:round;stroke-miterlimit:50;stroke-width:2;fill:none" xlink:href="#d"/><path d="m721.06 269.94 9.94 3.06-9.94 3.06-3.06 9.94-3.06-9.94-9.94-3.06 9.94-3.06 3.06-9.94z" fill="#fff"/><path d="m718.06 262.94 9.94 3.06-9.94 3.06-3.06 9.94-3.06-9.94-9.94-3.06 9.94-3.06 3.06-9.94z" style="stroke:#111212;stroke-linecap:round;stroke-linejoin:round;stroke-miterlimit:50;stroke-width:2;fill:none"/><path d="m718.18 189.18c-1-4.05 2.14-8.6 6.26-9.12 4.13-.5 8.27 2.1 8.3 6.26 13.98-10.13 38.06-3 44.06 13.23 6.53 17.67-2 35.8-18.6 40.51a11.63 11.63 0 0 1 -8.73 10.67 11.6 11.6 0 0 1 -12.52-5.74 8.72 8.72 0 0 1 -10.37 4.7 8.75 8.75 0 0 1 -5.58-9.94l-64-34.69s61.22-15.72 61.18-15.88" fill="#fff"/><path d="m718.18 189.18c-1-4.05 2.14-8.6 6.26-9.12 4.13-.5 8.27 2.1 8.3 6.26 13.98-10.13 38.06-3 44.06 13.23 6.53 17.67-2 35.8-18.6 40.51a11.63 11.63 0 0 1 -8.73 10.67 11.6 11.6 0 0 1 -12.52-5.74 8.72 8.72 0 0 1 -10.37 4.7 8.75 8.75 0 0 1 -5.58-9.94l-64-34.69s61.22-15.72 61.18-15.88z" style="stroke:#111212;stroke-linecap:round;stroke-linejoin:round;stroke-miterlimit:50;stroke-width:2;fill:none"/><path d="m736.96 194c-6.66 2.38-10.17 10.03-9.95 17.06.28 8.91 6.27 17.85 14.99 19.94" style="stroke:#111212;stroke-linecap:round;stroke-linejoin:round;stroke-miterlimit:50;stroke-width:2;fill:none"/><use fill="#c6c9ff" xlink:href="#e"/><use style="stroke:#111212;stroke-linecap:round;stroke-linejoin:round;stroke-miterlimit:50;stroke-width:2;fill:none" xlink:href="#e"/></g></svg>